<svg xmlns="http://www.w3.org/2000/svg" opacity="0" style="translate:none;rotate:none;scale:none;transform:translate(0,0);opacity:1" viewBox="0 0 600 300"><g class="quarter-circle"><path fill="#33006c" d="M0 0h100v100H0z"/><g mask="url(#a)"><circle cy="100" r="100" fill="#009599"/><circle cy="100" r="50" fill="#33006c"/></g></g><defs><mask id="a"><path fill="#fff" d="M0 0h100v100H0z"/></mask><mask id="b"><path fill="#fff" d="M0 100h100v100H0z"/></mask><mask id="c"><path fill="#fff" d="M0 200h100v100H0z"/></mask><mask id="d"><path fill="#fff" d="M100 0h100v100H100z"/></mask><mask id="e"><path fill="#fff" d="M100 100h100v100H100z"/></mask><mask id="f"><path fill="#fff" d="M100 200h100v100H100z"/></mask><mask id="g"><path fill="#fff" d="M200 0h100v100H200z"/></mask><mask id="h"><path fill="#fff" d="M200 100h100v100H200z"/></mask><mask id="i"><path fill="#fff" d="M200 200h100v100H200z"/></mask><mask id="j"><path fill="#fff" d="M300 0h100v100H300z"/></mask><mask id="k"><path fill="#fff" d="M300 100h100v100H300z"/></mask><mask id="l"><path fill="#fff" d="M300 200h100v100H300z"/></mask><mask id="m"><path fill="#fff" d="M400 0h100v100H400z"/></mask><mask id="n"><path fill="#fff" d="M400 100h100v100H400z"/></mask><mask id="o"><path fill="#fff" d="M400 200h100v100H400z"/></mask><mask id="p"><path fill="#fff" d="M500 0h100v100H500z"/></mask><mask id="q"><path fill="#fff" d="M500 100h100v100H500z"/></mask><mask id="r"><path fill="#fff" d="M500 200h100v100H500z"/></mask></defs><g class="opposite-circles"><path fill="#009599" d="M0 100h100v100H0z"/><g fill="#33006c" mask="url(#b)"><circle cy="200" r="50"/><circle cx="100" cy="100" r="50"/></g></g><g class="quarter-circle"><path fill="#dd8d0e" d="M0 200h100v100H0z"/><g mask="url(#c)"><circle cy="200" r="100" fill="#009599"/><circle cy="200" r="50" fill="#dd8d0e"/></g></g><g class="opposite-circles"><path fill="#33006c" d="M100 0h100v100H100z"/><g fill="#fff" mask="url(#d)"><circle cx="100" cy="100" r="50"/><circle cx="200" r="50"/></g></g><g class="quarter-circle"><path fill="#009599" d="M100 100h100v100H100z"/><g mask="url(#e)"><circle cx="100" cy="100" r="100" fill="#33006c"/><circle cx="100" cy="100" r="50" fill="#009599"/></g></g><g class="quarter-circle"><path fill="#009599" d="M100 200h100v100H100z"/><g mask="url(#f)"><circle cx="100" cy="300" r="100" fill="#33006c"/></g></g><g class="opposite-circles"><path fill="#009599" d="M200 0h100v100H200z"/><g fill="#dd8d0e" mask="url(#g)"><circle cx="200" cy="100" r="50"/><circle cx="300" r="50"/></g></g><g class="quarter-circle"><path fill="#33006c" d="M200 100h100v100H200z"/><g mask="url(#h)"><circle cx="200" cy="200" r="100" fill="#fff"/></g></g><g class="opposite-circles"><path fill="#33006c" d="M200 200h100v100H200z"/><g fill="#009599" mask="url(#i)"><circle cx="200" cy="200" r="50"/><circle cx="300" cy="300" r="50"/></g></g><g class="quarter-circle"><path fill="#33006c" d="M300 0h100v100H300z"/><g mask="url(#j)"><circle cx="300" cy="100" r="100" fill="#dd8d0e"/><circle cx="300" cy="100" r="50" fill="#33006c"/></g></g><g class="quarter-circle"><path fill="#009599" d="M300 100h100v100H300z"/><g mask="url(#k)"><circle cx="400" cy="200" r="100" fill="#dd8d0e"/></g></g><g class="opposite-circles"><path fill="#009599" d="M300 200h100v100H300z"/><g fill="#33006c" mask="url(#l)"><circle cx="300" cy="300" r="50"/><circle cx="400" cy="200" r="50"/></g></g><g class="opposite-circles"><path fill="#33006c" d="M400 0h100v100H400z"/><g fill="#009599" mask="url(#m)"><circle cx="400" r="50"/><circle cx="500" cy="100" r="50"/></g></g><g class="quarter-circle"><path fill="#33006c" d="M400 100h100v100H400z"/><g mask="url(#n)"><circle cx="400" cy="100" r="100" fill="#009599"/></g></g><g class="quarter-circle"><path fill="#33006c" d="M400 200h100v100H400z"/><g mask="url(#o)"><circle cx="400" cy="300" r="100" fill="#dd8d0e"/></g></g><g class="quarter-circle"><path fill="#dd8d0e" d="M500 0h100v100H500z"/><g mask="url(#p)"><circle cx="500" cy="100" r="100" fill="#33006c"/><circle cx="500" cy="100" r="50" fill="#dd8d0e"/></g></g><g class="quarter-circle"><path fill="#dd8d0e" d="M500 100h100v100H500z"/><g mask="url(#q)"><circle cx="500" cy="100" r="100" fill="#009599"/><circle cx="500" cy="100" r="50" fill="#dd8d0e"/></g></g><g class="quarter-circle"><path fill="#33006c" d="M500 200h100v100H500z"/><g mask="url(#r)"><circle cx="500" cy="200" r="100" fill="#fff"/></g></g></svg>