<svg version="1.1" x="0px" y="0px" viewBox="0 0 750 500" style="enable-background:new 0 0 750 500;" xmlns="http://www.w3.org/2000/svg">
  <defs></defs>
  <g id="BACKGROUND">
    <rect style="fill:#F9FBFC;" width="750" height="500"></rect>
  </g>
  <g id="OBJECTS">
    <g>
      <g>
        <text style="font-family: Poppins-Italic; font-size: 32px; white-space: pre;" x="215.036" y="44.2">Digitalwarenkombinat </text>
        <text style="white-space: pre; fill: rgb(51, 51, 51); font-family: Arial, sans-serif; font-size: 10.8px;" x="322.257" y="44.822"> </text>
        <text style="white-space: pre; fill: rgb(51, 51, 51); font-family: Arial, sans-serif; font-size: 10.8px;" x="368.238" y="49.073"> </text>
      </g>
      <g>
        <g>
          <g>
            <g>
              <g id="XMLID_3_">
                <g>
                  <path style="fill:#dd8d0e;" d="M594.984,279.059c0,0.329,0,0.627,0,0.956c0,1.882-0.06,3.764-0.149,5.646l-17.656-10.187
									l-18.343,10.576c0.209-2.002,0.299-4.003,0.299-6.035c0-0.269,0-0.538-0.03-0.807l18.074-10.426L594.984,279.059z"></path>
                  <path style="fill:#502d94;" d="M594.984,279.059l-17.805-10.277l-18.074,10.426c-0.418-36.567-30.293-66.173-66.95-66.173
									c-5.587,0-11.173,0.926-16.76,2.599l-15.505-14.669l4.66-19.479c8.903-2.749,18.134-4.302,27.604-4.302
									C548.529,177.185,594.476,222.804,594.984,279.059z"></path>
                  <path style="fill:#431a8e;" d="M577.179,275.474l17.656,10.187c-2.958,54.044-47.86,97.153-102.68,97.153
									c-2.39,0-4.78-0.09-7.17-0.299c-6.124-0.508-12.099-1.553-17.895-3.107l15.684-14.818l-4.571-19.269
									c4.511,1.046,9.172,1.643,13.952,1.643c34.894,0,63.634-26.798,66.681-60.915L577.179,275.474z"></path>
                  <path style="fill:#ffa43d;" d="M478.203,345.322l4.571,19.269l-15.684,14.818c-2.181-0.538-4.332-1.165-6.453-1.882
									l15.714-14.848l-4.571-19.21C473.871,344.186,476.022,344.814,478.203,345.322z"></path>
                  <path style="fill:#f4b04e;" d="M396.824,279.746c9.859,12.906,20.166,25.394,32.295,36.178
									c12.458,11.113,26.678,22.108,42.661,27.545l4.571,19.21l-15.714,14.848c-32.175-10.516-59.063-35.312-80.184-61.124
									c-1.703-2.091-3.376-4.182-5.019-6.304c-4.302-5.467-8.514-11.054-12.727-16.64l20.345-2.719l7.797-18.881
									C392.82,274.488,394.792,277.147,396.824,279.746z"></path>
                  <path style="fill:#00b2b4;" d="M459.89,200.966l15.505,14.669c-2.061,0.598-4.123,1.314-6.184,2.121l-15.744-14.878
									l4.571-19.18c2.151-0.807,4.332-1.553,6.513-2.211L459.89,200.966z"></path>
                  <path style="fill:#b8b2e6;" d="M453.467,202.878l15.744,14.878c-29.636,11.621-57.479,42.124-72.387,61.991
									c-2.031-2.599-4.003-5.258-5.975-7.887c-1.344-1.793-2.689-3.585-4.063-5.378c-4.093-5.497-8.216-10.994-12.428-16.401
									l0.627-0.508c17.088-21.062,47.083-52.431,83.052-65.874L453.467,202.878z"></path>
                  <path style="fill:#d1f2f2;" d="M390.849,271.859l-7.797,18.881l-20.345,2.719c-1.344-1.793-2.689-3.585-4.003-5.348
									l20.285-2.689l7.797-18.941C388.16,268.274,389.504,270.067,390.849,271.859z"></path>
                  <path style="fill:#e67e00;" d="M352.967,280.583c-7.529-9.769-15.266-19.359-23.84-28.262
									c-13.235-13.772-29.278-27.784-47.621-34.715l15.565-14.728l-4.631-19.359c27.037,9.919,50.489,30.204,69.4,51.475
									c4.332,4.87,8.455,9.948,12.518,15.087c4.212,5.407,8.335,10.904,12.428,16.401l-7.797,18.941l-20.285,2.689h-0.03
									C356.791,285.602,354.879,283.092,352.967,280.583z"></path>
                  <path style="fill:#006b6d;" d="M375.433,310.099l-0.448,0.358c-17.477,21.57-48.457,53.835-85.442,66.711l-15.356-14.489
									l4.69-19.688c30.174-10.994,58.794-42.124,74.09-62.409c1.912,2.509,3.824,5.019,5.706,7.529h0.03
									c1.315,1.763,2.659,3.555,4.003,5.348C366.919,299.045,371.131,304.632,375.433,310.099z"></path>
                  <path style="fill:#ffd28e;" d="M292.441,183.519l4.631,19.359l-15.565,14.728c-2.061-0.807-4.123-1.494-6.244-2.091
									l15.386-14.549l-4.66-19.568C288.168,182.025,290.319,182.742,292.441,183.519z"></path>
                  <path style="fill:#fce4b3;" d="M285.988,181.398l4.66,19.568l-15.386,14.549c-5.616-1.583-11.412-2.48-17.417-2.48
									c-36.567,0-66.382,29.457-66.95,65.874l-17.537-10.128l-18.343,10.576c0.359-56.404,46.336-102.172,102.83-102.172
									C267.585,177.185,276.965,178.679,285.988,181.398z"></path>
                  <path style="fill:#e0f5f4;" d="M274.187,362.679l15.356,14.489c-2.091,0.747-4.212,1.404-6.333,2.002l-15.445-14.579
									l4.661-19.598c2.151-0.568,4.302-1.255,6.453-2.002L274.187,362.679z"></path>
                  <path style="fill:#1e0046;" d="M267.764,364.591l15.445,14.579c-8.216,2.33-16.7,3.645-25.364,3.645
									c-54.701,0-99.573-42.93-102.65-96.855l18.164-10.486l17.776,10.247c2.868,34.267,31.697,61.244,66.711,61.244
									c4.84,0,9.709-0.687,14.579-1.972L267.764,364.591z"></path>
                  <path style="fill:#70678a;" d="M191.135,285.721l-17.776-10.247l-18.164,10.486c-0.12-1.972-0.179-3.944-0.179-5.945
									c0-0.209,0-0.448,0-0.657l18.343-10.576l17.537,10.128c-0.03,0.358-0.03,0.747-0.03,1.105
									C190.866,281.927,190.955,283.839,191.135,285.721z"></path>
                </g>
              </g>
            </g>
            <text transform="matrix(1 0 0 1 195.8948 217.6062)" style="fill: rgb(24, 25, 25); font-family: Montserrat-Black; font-size: 15.7626px; white-space: pre;">01</text>
            <text transform="matrix(1 0 0 1 534.5229 217.6062)" style="fill: rgb(249, 251, 252); font-family: Montserrat-Black; font-size: 15.7626px; white-space: pre;">05</text>
            <text transform="matrix(1 0 0 1 193.8455 351.6751)" style="fill: rgb(249, 251, 252); font-family: Montserrat-Black; font-size: 15.7626px; white-space: pre;">08</text>
            <text transform="matrix(1 0 0 1 533.7895 351.6751)" style="fill: rgb(249, 251, 252); font-family: Montserrat-Black; font-size: 15.7626px; white-space: pre;">04</text>
            <text transform="matrix(1 0 0 1 325.5696 240.7786)" style="fill: rgb(249, 251, 252); font-family: Montserrat-Black; font-size: 15.7626px; white-space: pre;">02</text>
            <text transform="matrix(1 0 0 1 404.6882 240.7786)" style="fill: rgb(249, 251, 252); font-family: Montserrat-Black; font-size: 15.7626px; white-space: pre;">06</text>
            <text transform="matrix(1 0 0 1 318.1057 338.7098)" style="fill: rgb(249, 251, 252); font-family: Montserrat-Black; font-size: 15.7626px; white-space: pre;">07</text>
            <text transform="matrix(1 0 0 1 410.562 338.7098)" style="fill: rgb(24, 25, 25); font-family: Montserrat-Black; font-size: 15.7626px; white-space: pre;">03</text>
          </g>
        </g>
      </g>
      <g>
        <g>
          <g>
            <g>
              <g>
                <rect x="53.811" y="144.41" style="fill:#F0F5F7;" width="108.762" height="69.423"></rect>
              </g>
              <text style="fill: rgb(82, 96, 104); font-family: Poppins-SemiBold; font-size: 16px; text-anchor: middle; text-transform: uppercase; white-space: pre;" x="93.756" y="159.474">Plan</text>
            </g>
          </g>
          <g>
            <g>
              <polyline style="fill:none;stroke:#C3D3DD;stroke-width:1.5;stroke-linecap:round;stroke-miterlimit:10;" points="
							162.573,179.121 205.145,179.121 205.145,196.823"></polyline>
              <g>
                <path style="fill:#C3D3DD;" d="M202.325,196.682c0,1.557,1.263,2.82,2.82,2.82c1.557,0,2.82-1.263,2.82-2.82
								s-1.263-2.82-2.82-2.82C203.588,193.862,202.325,195.125,202.325,196.682z"></path>
              </g>
            </g>
          </g>
        </g>
        <g>
          <g>
            <g>
              <rect x="53.811" y="343.253" style="fill:#F0F5F7;" width="108.762" height="69.423"></rect>
              <text transform="matrix(1 0 0 1 67.3608 359.8945)" style="fill: rgb(82, 96, 104); font-family: Poppins-SemiBold; font-size: 16px; white-space: pre;">OPERATE</text>
            </g>
          </g>
          <g>
            <g>
              <polyline style="fill:none;stroke:#C3D3DD;stroke-width:1.5;stroke-linecap:round;stroke-miterlimit:10;" points="
							162.573,377.964 205.145,377.964 205.145,360.262 						"></polyline>
              <g>
                <path style="fill:#C3D3DD;" d="M207.965,360.403c0-1.557-1.263-2.82-2.82-2.82c-1.557,0-2.82,1.263-2.82,2.82
								c0,1.557,1.263,2.82,2.82,2.82C206.702,363.223,207.965,361.96,207.965,360.403z"></path>
              </g>
            </g>
          </g>
        </g>
        <g>
          <g>
            <g>
              <g>
                <rect x="204.432" y="94.336" style="fill:#F0F5F7;" width="108.762" height="69.423"></rect>
              </g>
              <text style="fill: rgb(82, 96, 104); font-family: Poppins-SemiBold; font-size: 16px; white-space: pre;" transform="matrix(1.046699, 0, 0, 1, 221.921906, 112.523094)">LAYOUT</text>
            </g>
          </g>
          <g>
            <g>
              <polyline style="fill:none;stroke:#C3D3DD;stroke-width:1.5;stroke-linecap:round;stroke-miterlimit:10;" points="
							313.194,129.047 334.648,129.047 334.648,222.154 						"></polyline>
              <g>
                <path style="fill:#C3D3DD;" d="M331.829,222.012c0,1.557,1.263,2.82,2.82,2.82s2.82-1.263,2.82-2.82
								c0-1.557-1.263-2.82-2.82-2.82S331.829,220.455,331.829,222.012z"></path>
              </g>
            </g>
          </g>
        </g>
        <g>
          <g>
            <g>
              <rect x="252.047" y="409.568" style="fill:#F0F5F7;" width="108.762" height="69.423"></rect>
              <text transform="matrix(1 0 0 1 265.5967 426.21)" style="fill: rgb(82, 96, 104); font-family: Poppins-SemiBold; font-size: 16px; white-space: pre;">DEPLOY</text>
            </g>
          </g>
          <g>
            <g>
              <line style="fill:none;stroke:#C3D3DD;stroke-width:1.5;stroke-linecap:round;stroke-miterlimit:10;" x1="329.145" y1="409.568" x2="329.145" y2="346.859"></line>
              <g>
                <path style="fill:#C3D3DD;" d="M331.965,347c0-1.557-1.263-2.82-2.82-2.82c-1.557,0-2.82,1.263-2.82,2.82
								s1.263,2.82,2.82,2.82C330.703,349.82,331.965,348.557,331.965,347z"></path>
              </g>
            </g>
          </g>
        </g>
        <g>
          <g>
            <g>
              <rect x="587.427" y="144.41" style="fill:#F0F5F7;" width="108.762" height="69.423"></rect>
              <text transform="matrix(1 0 0 1 600.9766 161.0513)" style="fill: rgb(82, 96, 104); font-family: Poppins-SemiBold; font-size: 16px; white-space: pre;">QUALITY</text>
            </g>
          </g>
          <g>
            <g>
              <polyline style="fill:none;stroke:#C3D3DD;stroke-width:1.5;stroke-linecap:round;stroke-miterlimit:10;" points="
							587.427,179.121 544.855,179.121 544.855,196.823 						"></polyline>
              <g>
                <circle style="fill:#C3D3DD;" cx="544.855" cy="196.682" r="2.82"></circle>
              </g>
            </g>
          </g>
        </g>
        <g>
          <g>
            <g>
              <rect x="587.427" y="343.253" style="fill:#F0F5F7;" width="108.762" height="69.423"></rect>
              <text transform="matrix(1 0 0 1 600.9766 359.8945)" style="fill: rgb(82, 96, 104); font-family: Poppins-SemiBold; font-size: 16px; white-space: pre;">CODE</text>
            </g>
          </g>
          <g>
            <g>
              <polyline style="fill:none;stroke:#C3D3DD;stroke-width:1.5;stroke-linecap:round;stroke-miterlimit:10;" points="
							587.427,377.964 544.855,377.964 544.855,360.262 						"></polyline>
              <g>
                <circle style="fill:#C3D3DD;" cx="544.855" cy="360.403" r="2.82"></circle>
              </g>
            </g>
          </g>
        </g>
        <g>
          <g>
            <g>
              <rect x="436.806" y="94.336" style="fill:#F0F5F7;" width="108.762" height="69.423"></rect>
              <text transform="matrix(1 0 0 1 450.3555 110.9775)" style="fill: rgb(82, 96, 104); font-family: Poppins-SemiBold; font-size: 16px; white-space: pre;">RELEASE</text>
            </g>
          </g>
          <g>
            <g>
              <polyline style="fill:none;stroke:#C3D3DD;stroke-width:1.5;stroke-linecap:round;stroke-miterlimit:10;" points="
							436.806,129.047 415.351,129.047 415.351,222.154 						"></polyline>
              <g>
                <path style="fill:#C3D3DD;" d="M412.532,222.012c0,1.557,1.263,2.82,2.82,2.82c1.557,0,2.82-1.263,2.82-2.82
								c0-1.557-1.263-2.82-2.82-2.82C413.794,219.193,412.532,220.455,412.532,222.012z"></path>
              </g>
            </g>
          </g>
        </g>
        <g>
          <g>
            <g>
              <rect x="389.19" y="409.568" style="fill:#F0F5F7;" width="108.762" height="69.423"></rect>
              <text transform="matrix(1 0 0 1 402.7402 426.21)" style="fill: rgb(82, 96, 104); font-family: Poppins-SemiBold; font-size: 16px; white-space: pre;">CONTENT</text>
            </g>
          </g>
          <g>
            <g>
              <line style="fill:none;stroke:#C3D3DD;stroke-width:1.5;stroke-linecap:round;stroke-miterlimit:10;" x1="420.855" y1="409.568" x2="420.855" y2="346.859"></line>
              <g>
                <circle style="fill:#C3D3DD;" cx="420.855" cy="347" r="2.82"></circle>
              </g>
            </g>
          </g>
        </g>
      </g>
    </g>
  </g>
</svg>